<svg width="218" height="59" viewBox="0 0 218 59" fill="none" xmlns="http://www.w3.org/2000/svg">
<path d="M11.5122 43.207C9.27942 43.207 7.27447 42.9375 5.49736 42.3986C3.72025 41.9046 2.07984 41.2759 0.576135 40.5124L0.644486 32.4962H1.32799L3.6519 36.538C4.65438 38.3343 5.74798 39.6816 6.93272 40.5798C8.16303 41.4331 9.7123 41.8597 11.5805 41.8597C13.7678 41.8597 15.5221 41.3882 16.8435 40.4451C18.2105 39.4571 18.894 38.1547 18.894 36.538C18.894 35.056 18.4156 33.8434 17.4587 32.9004C16.5018 31.9573 14.7247 31.104 12.1274 30.3405L9.25664 29.4648C6.47706 28.6565 4.28984 27.399 2.695 25.6925C1.10016 23.9859 0.302734 21.8976 0.302734 19.4276C0.302734 16.4637 1.48748 13.9488 3.85696 11.8829C6.22644 9.81712 9.62117 8.78421 14.0412 8.78421C15.8183 8.78421 17.4815 8.9863 19.0307 9.39048C20.6256 9.74976 22.1521 10.3111 23.6102 11.0746L23.2001 18.3498H22.5166L20.1243 14.1733C19.2586 12.6913 18.3928 11.6584 17.527 11.0746C16.7068 10.4458 15.4537 10.1315 13.7678 10.1315C12.2185 10.1315 10.7603 10.5581 9.39334 11.4114C8.02633 12.2647 7.34282 13.4772 7.34282 15.049C7.34282 16.5759 7.91241 17.7885 9.05159 18.6867C10.2363 19.5848 11.9679 20.4156 14.2462 21.1791L17.322 22.0548C20.6028 23.0428 22.9495 24.4125 24.3621 26.164C25.7746 27.8705 26.4809 29.9364 26.4809 32.3614C26.4809 35.6398 25.1595 38.267 22.5166 40.243C19.9193 42.219 16.2512 43.207 11.5122 43.207Z" fill="#917864"/>
<path d="M11.5122 43.207C9.27942 43.207 7.27447 42.9375 5.49736 42.3986C3.72025 41.9046 2.07984 41.2759 0.576135 40.5124L0.644486 32.4962H1.32799L3.6519 36.538C4.65438 38.3343 5.74798 39.6816 6.93272 40.5798C8.16303 41.4331 9.7123 41.8597 11.5805 41.8597C13.7678 41.8597 15.5221 41.3882 16.8435 40.4451C18.2105 39.4571 18.894 38.1547 18.894 36.538C18.894 35.056 18.4156 33.8434 17.4587 32.9004C16.5018 31.9573 14.7247 31.104 12.1274 30.3405L9.25664 29.4648C6.47706 28.6565 4.28984 27.399 2.695 25.6925C1.10016 23.9859 0.302734 21.8976 0.302734 19.4276C0.302734 16.4637 1.48748 13.9488 3.85696 11.8829C6.22644 9.81712 9.62117 8.78421 14.0412 8.78421C15.8183 8.78421 17.4815 8.9863 19.0307 9.39048C20.6256 9.74976 22.1521 10.3111 23.6102 11.0746L23.2001 18.3498H22.5166L20.1243 14.1733C19.2586 12.6913 18.3928 11.6584 17.527 11.0746C16.7068 10.4458 15.4537 10.1315 13.7678 10.1315C12.2185 10.1315 10.7603 10.5581 9.39334 11.4114C8.02633 12.2647 7.34282 13.4772 7.34282 15.049C7.34282 16.5759 7.91241 17.7885 9.05159 18.6867C10.2363 19.5848 11.9679 20.4156 14.2462 21.1791L17.322 22.0548C20.6028 23.0428 22.9495 24.4125 24.3621 26.164C25.7746 27.8705 26.4809 29.9364 26.4809 32.3614C26.4809 35.6398 25.1595 38.267 22.5166 40.243C19.9193 42.219 16.2512 43.207 11.5122 43.207Z" fill="white" fill-opacity="0.1"/>
<path d="M41.4283 43.207C39.6512 43.207 38.0108 42.8702 36.5071 42.1965C35.0489 41.5229 33.887 40.4451 33.0212 38.9631C32.201 37.4362 31.8137 35.4377 31.8593 32.9677L32.0643 15.6553C32.0643 14.6224 31.882 13.8814 31.5175 13.4323C31.153 12.9832 30.5834 12.6688 29.8087 12.4892L28.9885 12.2198V11.5461L41.2233 9.18839L41.9068 9.86203L41.565 19.4276V35.6623C41.565 37.0993 41.9751 38.1547 42.7953 38.8283C43.6611 39.502 44.7319 39.8388 46.0078 39.8388C47.2837 39.8388 48.4228 39.6592 49.4253 39.2999C50.4278 38.9406 51.4302 38.4017 52.4327 37.6832L52.7061 15.7227C52.7061 14.6897 52.5466 13.9712 52.2277 13.567C51.9087 13.1179 51.3163 12.8036 50.4506 12.6239L49.7671 12.4218V11.7482L61.7284 9.18839L62.4119 9.86203L62.2068 19.4276V37.6832C62.2068 38.6712 62.3435 39.4346 62.6169 39.9735C62.8903 40.5124 63.4827 40.9615 64.394 41.3208L65.0775 41.5229V42.1965L53.1162 42.8702L52.5011 38.8957C50.9974 40.1083 49.357 41.1412 47.5798 41.9944C45.8483 42.8028 43.7978 43.207 41.4283 43.207Z" fill="#917864"/>
<path d="M41.4283 43.207C39.6512 43.207 38.0108 42.8702 36.5071 42.1965C35.0489 41.5229 33.887 40.4451 33.0212 38.9631C32.201 37.4362 31.8137 35.4377 31.8593 32.9677L32.0643 15.6553C32.0643 14.6224 31.882 13.8814 31.5175 13.4323C31.153 12.9832 30.5834 12.6688 29.8087 12.4892L28.9885 12.2198V11.5461L41.2233 9.18839L41.9068 9.86203L41.565 19.4276V35.6623C41.565 37.0993 41.9751 38.1547 42.7953 38.8283C43.6611 39.502 44.7319 39.8388 46.0078 39.8388C47.2837 39.8388 48.4228 39.6592 49.4253 39.2999C50.4278 38.9406 51.4302 38.4017 52.4327 37.6832L52.7061 15.7227C52.7061 14.6897 52.5466 13.9712 52.2277 13.567C51.9087 13.1179 51.3163 12.8036 50.4506 12.6239L49.7671 12.4218V11.7482L61.7284 9.18839L62.4119 9.86203L62.2068 19.4276V37.6832C62.2068 38.6712 62.3435 39.4346 62.6169 39.9735C62.8903 40.5124 63.4827 40.9615 64.394 41.3208L65.0775 41.5229V42.1965L53.1162 42.8702L52.5011 38.8957C50.9974 40.1083 49.357 41.1412 47.5798 41.9944C45.8483 42.8028 43.7978 43.207 41.4283 43.207Z" fill="white" fill-opacity="0.1"/>
<path d="M73.1915 58.3638C71.3688 58.3638 69.9107 57.9147 68.8171 57.0165C67.769 56.1183 67.245 54.9731 67.245 53.581C67.245 52.3235 67.7007 51.3131 68.612 50.5496C69.5233 49.7861 70.5486 49.4044 71.6878 49.4044C72.8269 49.4044 73.7839 49.629 74.5585 50.0781C75.3331 50.5721 76.0166 51.2681 76.609 52.1663L77.0874 52.7052C78.0899 54.0525 79.0924 54.03 80.0949 52.6379C80.505 51.9642 80.9606 51.0661 81.4619 49.9433C82.0087 48.8655 82.6238 47.406 83.3073 45.5647L70.0474 14.308C69.7284 13.4547 69.3866 12.7811 69.0221 12.2871C68.6576 11.7482 68.0652 11.2991 67.245 10.9398L66.0147 10.4683V9.79466H83.0339V10.4009L81.6669 10.9398C80.6645 11.2542 80.1404 11.7707 80.0949 12.4892C80.0949 13.1628 80.2771 14.0161 80.6417 15.049L87.7501 33.2372L94.5168 14.8469C94.8813 13.814 95.018 12.9608 94.9269 12.2871C94.8358 11.5686 94.2662 11.0746 93.2182 10.8051L91.7828 10.4683V9.79466H101.283V10.4683L99.7798 10.9398C98.7317 11.2542 98.0027 11.7033 97.5926 12.2871C97.1825 12.8709 96.7951 13.6793 96.4306 14.7122L85.4262 44.2848C83.6491 49.0002 81.872 52.5256 80.0949 54.8609C78.3178 57.1961 76.0166 58.3638 73.1915 58.3638Z" fill="#917864"/>
<path d="M73.1915 58.3638C71.3688 58.3638 69.9107 57.9147 68.8171 57.0165C67.769 56.1183 67.245 54.9731 67.245 53.581C67.245 52.3235 67.7007 51.3131 68.612 50.5496C69.5233 49.7861 70.5486 49.4044 71.6878 49.4044C72.8269 49.4044 73.7839 49.629 74.5585 50.0781C75.3331 50.5721 76.0166 51.2681 76.609 52.1663L77.0874 52.7052C78.0899 54.0525 79.0924 54.03 80.0949 52.6379C80.505 51.9642 80.9606 51.0661 81.4619 49.9433C82.0087 48.8655 82.6238 47.406 83.3073 45.5647L70.0474 14.308C69.7284 13.4547 69.3866 12.7811 69.0221 12.2871C68.6576 11.7482 68.0652 11.2991 67.245 10.9398L66.0147 10.4683V9.79466H83.0339V10.4009L81.6669 10.9398C80.6645 11.2542 80.1404 11.7707 80.0949 12.4892C80.0949 13.1628 80.2771 14.0161 80.6417 15.049L87.7501 33.2372L94.5168 14.8469C94.8813 13.814 95.018 12.9608 94.9269 12.2871C94.8358 11.5686 94.2662 11.0746 93.2182 10.8051L91.7828 10.4683V9.79466H101.283V10.4683L99.7798 10.9398C98.7317 11.2542 98.0027 11.7033 97.5926 12.2871C97.1825 12.8709 96.7951 13.6793 96.4306 14.7122L85.4262 44.2848C83.6491 49.0002 81.872 52.5256 80.0949 54.8609C78.3178 57.1961 76.0166 58.3638 73.1915 58.3638Z" fill="white" fill-opacity="0.1"/>
<path d="M116.802 43.207C113.885 43.207 111.607 42.4884 109.967 41.0513C108.372 39.6143 107.574 37.3239 107.574 34.1803V11.1419H102.858V10.4683L104.499 10.1988C105.911 9.88448 107.119 9.43539 108.121 8.85157C109.169 8.26776 110.194 7.48185 111.197 6.49385L116.802 0.36377H117.485L117.28 9.79466H124.935V11.1419H117.212V35.3928C117.212 36.9646 117.554 38.1547 118.237 38.9631C118.966 39.7714 119.877 40.1756 120.971 40.1756C121.928 40.1756 122.771 39.9511 123.5 39.502C124.229 39.008 124.958 38.3568 125.687 37.5484L126.371 38.2221C125.459 39.749 124.206 40.9615 122.612 41.8597C121.017 42.7579 119.08 43.207 116.802 43.207Z" fill="#917864"/>
<path d="M116.802 43.207C113.885 43.207 111.607 42.4884 109.967 41.0513C108.372 39.6143 107.574 37.3239 107.574 34.1803V11.1419H102.858V10.4683L104.499 10.1988C105.911 9.88448 107.119 9.43539 108.121 8.85157C109.169 8.26776 110.194 7.48185 111.197 6.49385L116.802 0.36377H117.485L117.28 9.79466H124.935V11.1419H117.212V35.3928C117.212 36.9646 117.554 38.1547 118.237 38.9631C118.966 39.7714 119.877 40.1756 120.971 40.1756C121.928 40.1756 122.771 39.9511 123.5 39.502C124.229 39.008 124.958 38.3568 125.687 37.5484L126.371 38.2221C125.459 39.749 124.206 40.9615 122.612 41.8597C121.017 42.7579 119.08 43.207 116.802 43.207Z" fill="white" fill-opacity="0.1"/>
<path d="M135.662 43.207C134.022 43.207 132.632 42.6456 131.493 41.5229C130.354 40.4002 129.784 39.0529 129.784 37.4811C129.784 35.9093 130.354 34.5395 131.493 33.3719C132.632 32.2043 134.022 31.6205 135.662 31.6205C137.303 31.6205 138.692 32.2043 139.832 33.3719C140.971 34.5395 141.54 35.9093 141.54 37.4811C141.54 39.0529 140.971 40.4002 139.832 41.5229C138.692 42.6456 137.303 43.207 135.662 43.207Z" fill="#D2CCC4"/>
<path d="M135.662 43.207C134.022 43.207 132.632 42.6456 131.493 41.5229C130.354 40.4002 129.784 39.0529 129.784 37.4811C129.784 35.9093 130.354 34.5395 131.493 33.3719C132.632 32.2043 134.022 31.6205 135.662 31.6205C137.303 31.6205 138.692 32.2043 139.832 33.3719C140.971 34.5395 141.54 35.9093 141.54 37.4811C141.54 39.0529 140.971 40.4002 139.832 41.5229C138.692 42.6456 137.303 43.207 135.662 43.207Z" fill="white" fill-opacity="0.1"/>
<path d="M162.37 43.6533C158.679 43.6533 155.376 42.8674 152.459 41.2955C149.589 39.7237 147.333 37.5681 145.693 34.8286C144.052 32.0443 143.232 28.9006 143.232 25.3977C143.232 21.8948 144.052 18.7737 145.693 16.0342C147.333 13.2499 149.589 11.0942 152.459 9.56731C155.376 7.9955 158.679 7.20959 162.37 7.20959C165.651 7.20959 168.567 7.86077 171.119 9.16313C173.716 10.4655 175.721 12.3517 177.134 14.8217L172.144 17.9878C171.005 16.2812 169.592 15.0013 167.906 14.148C166.22 13.2948 164.352 12.8681 162.302 12.8681C159.932 12.8681 157.791 13.3846 155.877 14.4175C154.009 15.4504 152.528 16.9324 151.434 18.8635C150.386 20.7497 149.862 22.9277 149.862 25.3977C149.862 27.9126 150.386 30.1356 151.434 32.0667C152.528 33.9529 154.009 35.4125 155.877 36.4454C157.791 37.4783 159.932 37.9947 162.302 37.9947C164.352 37.9947 166.22 37.5681 167.906 36.7148C169.592 35.8615 171.005 34.5816 172.144 32.8751L177.134 35.9738C175.721 38.4438 173.716 40.3524 171.119 41.6997C168.567 43.0021 165.651 43.6533 162.37 43.6533Z" fill="#516440"/>
<path d="M198.902 43.6533C195.302 43.6533 192.067 42.8674 189.196 41.2955C186.325 39.7237 184.07 37.5681 182.429 34.8286C180.834 32.0443 180.037 28.9006 180.037 25.3977C180.037 21.8948 180.834 18.7737 182.429 16.0342C184.07 13.2499 186.325 11.0942 189.196 9.56731C192.067 7.9955 195.302 7.20959 198.902 7.20959C202.502 7.20959 205.714 7.9955 208.539 9.56731C211.41 11.0942 213.643 13.2499 215.237 16.0342C216.878 18.7737 217.698 21.8948 217.698 25.3977C217.698 28.9006 216.878 32.0443 215.237 34.8286C213.643 37.5681 211.41 39.7237 208.539 41.2955C205.714 42.8674 202.502 43.6533 198.902 43.6533ZM198.902 37.9947C201.226 37.9947 203.299 37.4783 205.122 36.4454C206.99 35.3675 208.448 33.8855 209.496 31.9994C210.544 30.0683 211.068 27.8677 211.068 25.3977C211.068 22.9277 210.544 20.7497 209.496 18.8635C208.448 16.9324 206.99 15.4504 205.122 14.4175C203.299 13.3846 201.226 12.8681 198.902 12.8681C196.578 12.8681 194.482 13.3846 192.614 14.4175C190.791 15.4504 189.333 16.9324 188.239 18.8635C187.191 20.7497 186.667 22.9277 186.667 25.3977C186.667 27.8677 187.191 30.0683 188.239 31.9994C189.333 33.8855 190.791 35.3675 192.614 36.4454C194.482 37.4783 196.578 37.9947 198.902 37.9947Z" fill="#516440"/>
</svg>
